General                          
Complete name                    : Pineapple Express.mkv 
Format                           : Matroska
File size                        : 1.38 GiB
Duration                         : 1h 52mn
Overall bit rate                 : 1 753 Kbps


Video
ID                               : 1
Format                           : AVC
Duration                         : 1h 52mn
Bit rate                         : 1 270 Kbps
Width                            : 720 pixels
Height                           : 428 pixels
Display aspect ratio             : 2.35:1
Frame rate                       : 25.000 fps
Resolution                       : 8 bits
Colorimetry                      : 4:2:0
Scan type                        : Progressive
Bits/(Pixel*Frame)               : 0.165
Stream size                      : 1 023 MiB (72%)
Writing library                  : x264 core 79


Audio
ID                               : 2
Format                           : AC-3
Format/Info                      : Audio Coding 3
Codec ID                         : A_AC3
Duration                         : 1h 52mn
Bit rate mode                    : Constant
Bit rate                         : 448 Kbps
Channel(s)                       : 6 channels
Channel positions                : Front: L C R, Surround: L R, LFE
Sampling rate                    : 48.0 KHz
Stream size                      : 361 MiB (26%)
Language                         : English

Text #1
Language                         : English

Text #2
Language                         : Polish

Text #3
Language                         : Turkish

Text #4
Language                         : Dutch

Text #5
Language                         : Arabic

Text #6
Language                         : Bulgarian

Text #7
Language                         : Croatian

Text #8
Language                         : Danish

Text #9
Language                         : Estonian

Text #10
Language                         : Finnish

Text #11
Language                         : Greek

Text #12
Language                         : Unknown
 
Text #13
Language                         : Hindi

Text #14
Language                         : Icelandic

Text #15
Language                         : Lithuanian

Text #16
Language                         : Norwegian

Text #17
Language                         : Romanian

Text #18
Language                         : Serbian

Text #19
Language                         : Slovenian

Text #20
Language                         : Swedish

Text #21
Language                         : English

Text #22
Language                         : English

Text #23
Language                         : Dutch

Menu
00:00:00.000                     : Chapter 1


